<svg viewBox="0 0 900 280" font-family="Pretendard, sans-serif" xmlns="http://www.w3.org/2000/svg">
<path d="M35.0,50 L35.0,220 L285.0,220" stroke="#98A2B3" stroke-width="1.4" fill="none"/>
<text x="27" y="139" font-size="12" fill="#667085" text-anchor="end">0</text>
<text x="160" y="258" font-size="13" fill="#344054" font-weight="600" text-anchor="middle">예측값</text>
<path d="M35.0,135.0 L285.0,135.0" stroke="#344054" stroke-width="1.4" stroke-dasharray="5 4"/>
<circle cx="119.5" cy="117.0" r="3.4" fill="#4338CA" fill-opacity="0.6"/><circle cx="61.7" cy="110.0" r="3.4" fill="#4338CA" fill-opacity="0.6"/><circle cx="168.3" cy="139.9" r="3.4" fill="#4338CA" fill-opacity="0.6"/><circle cx="161.7" cy="129.5" r="3.4" fill="#4338CA" fill-opacity="0.6"/><circle cx="53.6" cy="142.4" r="3.4" fill="#4338CA" fill-opacity="0.6"/><circle cx="65.9" cy="131.7" r="3.4" fill="#4338CA" fill-opacity="0.6"/><circle cx="142.6" cy="129.9" r="3.4" fill="#4338CA" fill-opacity="0.6"/><circle cx="96.3" cy="144.7" r="3.4" fill="#4338CA" fill-opacity="0.6"/><circle cx="189.3" cy="108.6" r="3.4" fill="#4338CA" fill-opacity="0.6"/><circle cx="136.2" cy="144.0" r="3.4" fill="#4338CA" fill-opacity="0.6"/><circle cx="269.5" cy="94.8" r="3.4" fill="#4338CA" fill-opacity="0.6"/><circle cx="111.6" cy="122.9" r="3.4" fill="#4338CA" fill-opacity="0.6"/><circle cx="78.2" cy="121.5" r="3.4" fill="#4338CA" fill-opacity="0.6"/><circle cx="232.7" cy="122.7" r="3.4" fill="#4338CA" fill-opacity="0.6"/><circle cx="86.6" cy="161.4" r="3.4" fill="#4338CA" fill-opacity="0.6"/><circle cx="130.7" cy="149.9" r="3.4" fill="#4338CA" fill-opacity="0.6"/><circle cx="171.0" cy="128.1" r="3.4" fill="#4338CA" fill-opacity="0.6"/><circle cx="92.4" cy="132.1" r="3.4" fill="#4338CA" fill-opacity="0.6"/><circle cx="201.5" cy="151.6" r="3.4" fill="#4338CA" fill-opacity="0.6"/><circle cx="179.7" cy="126.9" r="3.4" fill="#4338CA" fill-opacity="0.6"/><circle cx="149.2" cy="146.6" r="3.4" fill="#4338CA" fill-opacity="0.6"/><circle cx="205.8" cy="99.0" r="3.4" fill="#4338CA" fill-opacity="0.6"/><circle cx="101.1" cy="158.2" r="3.4" fill="#4338CA" fill-opacity="0.6"/><circle cx="246.3" cy="146.7" r="3.4" fill="#4338CA" fill-opacity="0.6"/><circle cx="212.8" cy="149.1" r="3.4" fill="#4338CA" fill-opacity="0.6"/><circle cx="72.2" cy="77.2" r="3.4" fill="#4338CA" fill-opacity="0.6"/><circle cx="141.2" cy="134.5" r="3.4" fill="#4338CA" fill-opacity="0.6"/><circle cx="157.5" cy="147.2" r="3.4" fill="#4338CA" fill-opacity="0.6"/><circle cx="54.0" cy="152.8" r="3.4" fill="#4338CA" fill-opacity="0.6"/><circle cx="176.8" cy="166.5" r="3.4" fill="#4338CA" fill-opacity="0.6"/><circle cx="246.4" cy="147.8" r="3.4" fill="#4338CA" fill-opacity="0.6"/><circle cx="181.7" cy="104.8" r="3.4" fill="#4338CA" fill-opacity="0.6"/><circle cx="178.4" cy="174.1" r="3.4" fill="#4338CA" fill-opacity="0.6"/><circle cx="262.3" cy="123.9" r="3.4" fill="#4338CA" fill-opacity="0.6"/><circle cx="154.0" cy="138.9" r="3.4" fill="#4338CA" fill-opacity="0.6"/><circle cx="206.3" cy="141.5" r="3.4" fill="#4338CA" fill-opacity="0.6"/><circle cx="193.8" cy="95.6" r="3.4" fill="#4338CA" fill-opacity="0.6"/><circle cx="110.5" cy="136.7" r="3.4" fill="#4338CA" fill-opacity="0.6"/><circle cx="133.7" cy="137.2" r="3.4" fill="#4338CA" fill-opacity="0.6"/><circle cx="151.2" cy="139.0" r="3.4" fill="#4338CA" fill-opacity="0.6"/><circle cx="83.7" cy="129.5" r="3.4" fill="#4338CA" fill-opacity="0.6"/><circle cx="221.7" cy="130.0" r="3.4" fill="#4338CA" fill-opacity="0.6"/><circle cx="74.7" cy="134.7" r="3.4" fill="#4338CA" fill-opacity="0.6"/><circle cx="245.4" cy="113.8" r="3.4" fill="#4338CA" fill-opacity="0.6"/><circle cx="63.5" cy="160.5" r="3.4" fill="#4338CA" fill-opacity="0.6"/><circle cx="248.2" cy="126.6" r="3.4" fill="#4338CA" fill-opacity="0.6"/><circle cx="233.4" cy="123.7" r="3.4" fill="#4338CA" fill-opacity="0.6"/><circle cx="140.5" cy="147.9" r="3.4" fill="#4338CA" fill-opacity="0.6"/><circle cx="127.5" cy="95.1" r="3.4" fill="#4338CA" fill-opacity="0.6"/><circle cx="79.7" cy="170.6" r="3.4" fill="#4338CA" fill-opacity="0.6"/><circle cx="85.5" cy="133.2" r="3.4" fill="#4338CA" fill-opacity="0.6"/><circle cx="156.5" cy="119.6" r="3.4" fill="#4338CA" fill-opacity="0.6"/><circle cx="180.5" cy="135.2" r="3.4" fill="#4338CA" fill-opacity="0.6"/><circle cx="141.4" cy="133.1" r="3.4" fill="#4338CA" fill-opacity="0.6"/><circle cx="129.9" cy="183.1" r="3.4" fill="#4338CA" fill-opacity="0.6"/><circle cx="203.8" cy="156.3" r="3.4" fill="#4338CA" fill-opacity="0.6"/><circle cx="163.6" cy="158.6" r="3.4" fill="#4338CA" fill-opacity="0.6"/><circle cx="57.4" cy="156.5" r="3.4" fill="#4338CA" fill-opacity="0.6"/><circle cx="251.9" cy="126.9" r="3.4" fill="#4338CA" fill-opacity="0.6"/><circle cx="228.5" cy="177.5" r="3.4" fill="#4338CA" fill-opacity="0.6"/><circle cx="135.2" cy="143.0" r="3.4" fill="#4338CA" fill-opacity="0.6"/><circle cx="190.9" cy="129.1" r="3.4" fill="#4338CA" fill-opacity="0.6"/><circle cx="59.3" cy="121.7" r="3.4" fill="#4338CA" fill-opacity="0.6"/><circle cx="82.3" cy="129.0" r="3.4" fill="#4338CA" fill-opacity="0.6"/><circle cx="123.2" cy="134.6" r="3.4" fill="#4338CA" fill-opacity="0.6"/><circle cx="79.8" cy="134.9" r="3.4" fill="#4338CA" fill-opacity="0.6"/><circle cx="68.3" cy="138.2" r="3.4" fill="#4338CA" fill-opacity="0.6"/><circle cx="246.1" cy="131.3" r="3.4" fill="#4338CA" fill-opacity="0.6"/><circle cx="186.2" cy="125.4" r="3.4" fill="#4338CA" fill-opacity="0.6"/><circle cx="124.9" cy="122.0" r="3.4" fill="#4338CA" fill-opacity="0.6"/><circle cx="128.8" cy="105.4" r="3.4" fill="#4338CA" fill-opacity="0.6"/><circle cx="273.4" cy="106.2" r="3.4" fill="#4338CA" fill-opacity="0.6"/><circle cx="152.2" cy="144.0" r="3.4" fill="#4338CA" fill-opacity="0.6"/><circle cx="68.5" cy="134.1" r="3.4" fill="#4338CA" fill-opacity="0.6"/><circle cx="123.8" cy="138.7" r="3.4" fill="#4338CA" fill-opacity="0.6"/><circle cx="82.1" cy="95.2" r="3.4" fill="#4338CA" fill-opacity="0.6"/><circle cx="50.3" cy="110.2" r="3.4" fill="#4338CA" fill-opacity="0.6"/><circle cx="78.7" cy="142.9" r="3.4" fill="#4338CA" fill-opacity="0.6"/><circle cx="169.9" cy="109.3" r="3.4" fill="#4338CA" fill-opacity="0.6"/><circle cx="270.1" cy="130.6" r="3.4" fill="#4338CA" fill-opacity="0.6"/><circle cx="243.6" cy="140.5" r="3.4" fill="#4338CA" fill-opacity="0.6"/><circle cx="129.3" cy="150.6" r="3.4" fill="#4338CA" fill-opacity="0.6"/><circle cx="83.4" cy="131.4" r="3.4" fill="#4338CA" fill-opacity="0.6"/><circle cx="224.2" cy="161.0" r="3.4" fill="#4338CA" fill-opacity="0.6"/><circle cx="120.8" cy="128.5" r="3.4" fill="#4338CA" fill-opacity="0.6"/><circle cx="271.5" cy="96.7" r="3.4" fill="#4338CA" fill-opacity="0.6"/><circle cx="241.1" cy="121.5" r="3.4" fill="#4338CA" fill-opacity="0.6"/><circle cx="215.2" cy="171.8" r="3.4" fill="#4338CA" fill-opacity="0.6"/><circle cx="97.2" cy="154.8" r="3.4" fill="#4338CA" fill-opacity="0.6"/><circle cx="51.7" cy="137.2" r="3.4" fill="#4338CA" fill-opacity="0.6"/><circle cx="51.4" cy="138.0" r="3.4" fill="#4338CA" fill-opacity="0.6"/><circle cx="204.3" cy="118.8" r="3.4" fill="#4338CA" fill-opacity="0.6"/><circle cx="265.0" cy="182.2" r="3.4" fill="#4338CA" fill-opacity="0.6"/><circle cx="272.2" cy="118.7" r="3.4" fill="#4338CA" fill-opacity="0.6"/><circle cx="264.7" cy="144.9" r="3.4" fill="#4338CA" fill-opacity="0.6"/><circle cx="97.2" cy="123.7" r="3.4" fill="#4338CA" fill-opacity="0.6"/><circle cx="90.2" cy="126.6" r="3.4" fill="#4338CA" fill-opacity="0.6"/><circle cx="252.1" cy="106.5" r="3.4" fill="#4338CA" fill-opacity="0.6"/><circle cx="238.3" cy="165.7" r="3.4" fill="#4338CA" fill-opacity="0.6"/><circle cx="228.9" cy="131.0" r="3.4" fill="#4338CA" fill-opacity="0.6"/><circle cx="64.5" cy="159.8" r="3.4" fill="#4338CA" fill-opacity="0.6"/><circle cx="224.9" cy="174.4" r="3.4" fill="#4338CA" fill-opacity="0.6"/><circle cx="217.5" cy="148.2" r="3.4" fill="#4338CA" fill-opacity="0.6"/><circle cx="226.5" cy="133.2" r="3.4" fill="#4338CA" fill-opacity="0.6"/><circle cx="121.5" cy="117.2" r="3.4" fill="#4338CA" fill-opacity="0.6"/><circle cx="136.0" cy="188.9" r="3.4" fill="#4338CA" fill-opacity="0.6"/><circle cx="137.3" cy="102.8" r="3.4" fill="#4338CA" fill-opacity="0.6"/><circle cx="84.1" cy="146.2" r="3.4" fill="#4338CA" fill-opacity="0.6"/><circle cx="74.2" cy="108.2" r="3.4" fill="#4338CA" fill-opacity="0.6"/><circle cx="230.5" cy="97.5" r="3.4" fill="#4338CA" fill-opacity="0.6"/>
<text x="160" y="30" font-size="15" fill="#312E81" font-weight="700" text-anchor="middle">가정이 맞는 경우</text>
<text x="29" y="56" font-size="12" fill="#344054" font-weight="600" text-anchor="start">잔차</text>
<path d="M325.0,50 L325.0,220 L575.0,220" stroke="#98A2B3" stroke-width="1.4" fill="none"/>
<text x="317" y="139" font-size="12" fill="#667085" text-anchor="end">0</text>
<text x="450" y="258" font-size="13" fill="#344054" font-weight="600" text-anchor="middle">예측값</text>
<path d="M325.0,135.0 L575.0,135.0" stroke="#344054" stroke-width="1.4" stroke-dasharray="5 4"/>
<circle cx="368.6" cy="111.5" r="3.4" fill="#C2452F" fill-opacity="0.6"/><circle cx="486.2" cy="184.6" r="3.4" fill="#C2452F" fill-opacity="0.6"/><circle cx="415.6" cy="162.1" r="3.4" fill="#C2452F" fill-opacity="0.6"/><circle cx="338.3" cy="96.6" r="3.4" fill="#C2452F" fill-opacity="0.6"/><circle cx="558.3" cy="107.2" r="3.4" fill="#C2452F" fill-opacity="0.6"/><circle cx="549.7" cy="120.1" r="3.4" fill="#C2452F" fill-opacity="0.6"/><circle cx="434.8" cy="146.2" r="3.4" fill="#C2452F" fill-opacity="0.6"/><circle cx="383.5" cy="154.4" r="3.4" fill="#C2452F" fill-opacity="0.6"/><circle cx="392.9" cy="147.2" r="3.4" fill="#C2452F" fill-opacity="0.6"/><circle cx="469.9" cy="152.1" r="3.4" fill="#C2452F" fill-opacity="0.6"/><circle cx="394.7" cy="151.4" r="3.4" fill="#C2452F" fill-opacity="0.6"/><circle cx="544.3" cy="111.2" r="3.4" fill="#C2452F" fill-opacity="0.6"/><circle cx="416.4" cy="171.4" r="3.4" fill="#C2452F" fill-opacity="0.6"/><circle cx="543.0" cy="111.6" r="3.4" fill="#C2452F" fill-opacity="0.6"/><circle cx="431.7" cy="148.8" r="3.4" fill="#C2452F" fill-opacity="0.6"/><circle cx="457.3" cy="169.2" r="3.4" fill="#C2452F" fill-opacity="0.6"/><circle cx="455.4" cy="150.0" r="3.4" fill="#C2452F" fill-opacity="0.6"/><circle cx="377.1" cy="132.3" r="3.4" fill="#C2452F" fill-opacity="0.6"/><circle cx="335.9" cy="89.6" r="3.4" fill="#C2452F" fill-opacity="0.6"/><circle cx="443.9" cy="169.3" r="3.4" fill="#C2452F" fill-opacity="0.6"/><circle cx="501.8" cy="157.8" r="3.4" fill="#C2452F" fill-opacity="0.6"/><circle cx="454.2" cy="166.1" r="3.4" fill="#C2452F" fill-opacity="0.6"/><circle cx="462.8" cy="160.6" r="3.4" fill="#C2452F" fill-opacity="0.6"/><circle cx="463.9" cy="167.0" r="3.4" fill="#C2452F" fill-opacity="0.6"/><circle cx="392.2" cy="147.8" r="3.4" fill="#C2452F" fill-opacity="0.6"/><circle cx="451.8" cy="142.8" r="3.4" fill="#C2452F" fill-opacity="0.6"/><circle cx="464.2" cy="159.9" r="3.4" fill="#C2452F" fill-opacity="0.6"/><circle cx="436.9" cy="187.4" r="3.4" fill="#C2452F" fill-opacity="0.6"/><circle cx="475.9" cy="173.0" r="3.4" fill="#C2452F" fill-opacity="0.6"/><circle cx="494.3" cy="152.4" r="3.4" fill="#C2452F" fill-opacity="0.6"/><circle cx="439.0" cy="175.0" r="3.4" fill="#C2452F" fill-opacity="0.6"/><circle cx="551.5" cy="109.3" r="3.4" fill="#C2452F" fill-opacity="0.6"/><circle cx="495.8" cy="131.3" r="3.4" fill="#C2452F" fill-opacity="0.6"/><circle cx="394.7" cy="165.5" r="3.4" fill="#C2452F" fill-opacity="0.6"/><circle cx="463.7" cy="140.6" r="3.4" fill="#C2452F" fill-opacity="0.6"/><circle cx="366.5" cy="132.5" r="3.4" fill="#C2452F" fill-opacity="0.6"/><circle cx="363.0" cy="125.7" r="3.4" fill="#C2452F" fill-opacity="0.6"/><circle cx="390.3" cy="141.7" r="3.4" fill="#C2452F" fill-opacity="0.6"/><circle cx="351.8" cy="120.1" r="3.4" fill="#C2452F" fill-opacity="0.6"/><circle cx="541.3" cy="135.2" r="3.4" fill="#C2452F" fill-opacity="0.6"/><circle cx="370.5" cy="131.9" r="3.4" fill="#C2452F" fill-opacity="0.6"/><circle cx="367.9" cy="142.7" r="3.4" fill="#C2452F" fill-opacity="0.6"/><circle cx="538.1" cy="112.4" r="3.4" fill="#C2452F" fill-opacity="0.6"/><circle cx="554.1" cy="105.4" r="3.4" fill="#C2452F" fill-opacity="0.6"/><circle cx="426.6" cy="195.0" r="3.4" fill="#C2452F" fill-opacity="0.6"/><circle cx="526.5" cy="128.0" r="3.4" fill="#C2452F" fill-opacity="0.6"/><circle cx="372.1" cy="142.4" r="3.4" fill="#C2452F" fill-opacity="0.6"/><circle cx="413.0" cy="149.3" r="3.4" fill="#C2452F" fill-opacity="0.6"/><circle cx="380.0" cy="143.8" r="3.4" fill="#C2452F" fill-opacity="0.6"/><circle cx="339.5" cy="79.2" r="3.4" fill="#C2452F" fill-opacity="0.6"/><circle cx="462.4" cy="163.9" r="3.4" fill="#C2452F" fill-opacity="0.6"/><circle cx="411.2" cy="153.6" r="3.4" fill="#C2452F" fill-opacity="0.6"/><circle cx="478.5" cy="162.5" r="3.4" fill="#C2452F" fill-opacity="0.6"/><circle cx="561.6" cy="95.2" r="3.4" fill="#C2452F" fill-opacity="0.6"/><circle cx="516.3" cy="133.3" r="3.4" fill="#C2452F" fill-opacity="0.6"/><circle cx="396.1" cy="147.8" r="3.4" fill="#C2452F" fill-opacity="0.6"/><circle cx="344.1" cy="99.9" r="3.4" fill="#C2452F" fill-opacity="0.6"/><circle cx="364.8" cy="132.3" r="3.4" fill="#C2452F" fill-opacity="0.6"/><circle cx="432.1" cy="142.5" r="3.4" fill="#C2452F" fill-opacity="0.6"/><circle cx="394.5" cy="157.3" r="3.4" fill="#C2452F" fill-opacity="0.6"/><circle cx="369.4" cy="114.0" r="3.4" fill="#C2452F" fill-opacity="0.6"/><circle cx="496.1" cy="158.5" r="3.4" fill="#C2452F" fill-opacity="0.6"/><circle cx="355.6" cy="97.4" r="3.4" fill="#C2452F" fill-opacity="0.6"/><circle cx="432.8" cy="154.7" r="3.4" fill="#C2452F" fill-opacity="0.6"/><circle cx="351.7" cy="94.7" r="3.4" fill="#C2452F" fill-opacity="0.6"/><circle cx="519.4" cy="142.7" r="3.4" fill="#C2452F" fill-opacity="0.6"/><circle cx="354.3" cy="110.1" r="3.4" fill="#C2452F" fill-opacity="0.6"/><circle cx="533.4" cy="128.2" r="3.4" fill="#C2452F" fill-opacity="0.6"/><circle cx="439.4" cy="169.9" r="3.4" fill="#C2452F" fill-opacity="0.6"/><circle cx="548.1" cy="97.7" r="3.4" fill="#C2452F" fill-opacity="0.6"/><circle cx="396.6" cy="137.3" r="3.4" fill="#C2452F" fill-opacity="0.6"/><circle cx="389.8" cy="132.6" r="3.4" fill="#C2452F" fill-opacity="0.6"/><circle cx="360.2" cy="116.7" r="3.4" fill="#C2452F" fill-opacity="0.6"/><circle cx="381.4" cy="133.8" r="3.4" fill="#C2452F" fill-opacity="0.6"/><circle cx="406.8" cy="159.1" r="3.4" fill="#C2452F" fill-opacity="0.6"/><circle cx="401.7" cy="131.4" r="3.4" fill="#C2452F" fill-opacity="0.6"/><circle cx="450.0" cy="157.9" r="3.4" fill="#C2452F" fill-opacity="0.6"/><circle cx="339.2" cy="86.1" r="3.4" fill="#C2452F" fill-opacity="0.6"/><circle cx="392.6" cy="125.8" r="3.4" fill="#C2452F" fill-opacity="0.6"/><circle cx="461.7" cy="160.0" r="3.4" fill="#C2452F" fill-opacity="0.6"/><circle cx="378.6" cy="161.8" r="3.4" fill="#C2452F" fill-opacity="0.6"/><circle cx="359.4" cy="113.7" r="3.4" fill="#C2452F" fill-opacity="0.6"/><circle cx="523.4" cy="145.8" r="3.4" fill="#C2452F" fill-opacity="0.6"/><circle cx="527.0" cy="124.8" r="3.4" fill="#C2452F" fill-opacity="0.6"/><circle cx="425.4" cy="177.2" r="3.4" fill="#C2452F" fill-opacity="0.6"/><circle cx="561.0" cy="96.4" r="3.4" fill="#C2452F" fill-opacity="0.6"/><circle cx="413.8" cy="146.5" r="3.4" fill="#C2452F" fill-opacity="0.6"/><circle cx="481.3" cy="173.2" r="3.4" fill="#C2452F" fill-opacity="0.6"/><circle cx="428.1" cy="162.3" r="3.4" fill="#C2452F" fill-opacity="0.6"/><circle cx="364.9" cy="120.0" r="3.4" fill="#C2452F" fill-opacity="0.6"/><circle cx="351.3" cy="110.1" r="3.4" fill="#C2452F" fill-opacity="0.6"/><circle cx="372.5" cy="139.0" r="3.4" fill="#C2452F" fill-opacity="0.6"/><circle cx="354.4" cy="100.1" r="3.4" fill="#C2452F" fill-opacity="0.6"/><circle cx="489.2" cy="174.1" r="3.4" fill="#C2452F" fill-opacity="0.6"/><circle cx="399.8" cy="148.5" r="3.4" fill="#C2452F" fill-opacity="0.6"/><circle cx="440.7" cy="152.4" r="3.4" fill="#C2452F" fill-opacity="0.6"/><circle cx="371.2" cy="137.5" r="3.4" fill="#C2452F" fill-opacity="0.6"/><circle cx="556.2" cy="98.2" r="3.4" fill="#C2452F" fill-opacity="0.6"/><circle cx="558.7" cy="106.7" r="3.4" fill="#C2452F" fill-opacity="0.6"/><circle cx="557.1" cy="102.8" r="3.4" fill="#C2452F" fill-opacity="0.6"/><circle cx="406.2" cy="152.5" r="3.4" fill="#C2452F" fill-opacity="0.6"/><circle cx="422.8" cy="158.2" r="3.4" fill="#C2452F" fill-opacity="0.6"/><circle cx="444.2" cy="170.3" r="3.4" fill="#C2452F" fill-opacity="0.6"/><circle cx="451.1" cy="162.8" r="3.4" fill="#C2452F" fill-opacity="0.6"/><circle cx="336.1" cy="92.5" r="3.4" fill="#C2452F" fill-opacity="0.6"/><circle cx="426.9" cy="154.7" r="3.4" fill="#C2452F" fill-opacity="0.6"/><circle cx="344.6" cy="92.3" r="3.4" fill="#C2452F" fill-opacity="0.6"/><circle cx="388.5" cy="140.7" r="3.4" fill="#C2452F" fill-opacity="0.6"/><circle cx="469.7" cy="179.7" r="3.4" fill="#C2452F" fill-opacity="0.6"/><circle cx="486.2" cy="159.0" r="3.4" fill="#C2452F" fill-opacity="0.6"/>
<text x="450" y="30" font-size="15" fill="#C2452F" font-weight="700" text-anchor="middle">곡선을 직선으로 적합</text>
<text x="319" y="56" font-size="12" fill="#344054" font-weight="600" text-anchor="start">잔차</text>
<path d="M615.0,50 L615.0,220 L865.0,220" stroke="#98A2B3" stroke-width="1.4" fill="none"/>
<text x="607" y="139" font-size="12" fill="#667085" text-anchor="end">0</text>
<text x="740" y="258" font-size="13" fill="#344054" font-weight="600" text-anchor="middle">예측값</text>
<path d="M615.0,135.0 L865.0,135.0" stroke="#344054" stroke-width="1.4" stroke-dasharray="5 4"/>
<circle cx="789.7" cy="101.1" r="3.4" fill="#B54708" fill-opacity="0.6"/><circle cx="700.0" cy="151.6" r="3.4" fill="#B54708" fill-opacity="0.6"/><circle cx="851.5" cy="75.4" r="3.4" fill="#B54708" fill-opacity="0.6"/><circle cx="772.9" cy="79.5" r="3.4" fill="#B54708" fill-opacity="0.6"/><circle cx="635.1" cy="126.7" r="3.4" fill="#B54708" fill-opacity="0.6"/><circle cx="769.3" cy="211.0" r="3.4" fill="#B54708" fill-opacity="0.6"/><circle cx="793.8" cy="125.0" r="3.4" fill="#B54708" fill-opacity="0.6"/><circle cx="745.5" cy="153.1" r="3.4" fill="#B54708" fill-opacity="0.6"/><circle cx="741.0" cy="103.1" r="3.4" fill="#B54708" fill-opacity="0.6"/><circle cx="815.1" cy="217.9" r="3.4" fill="#B54708" fill-opacity="0.6"/><circle cx="759.3" cy="88.4" r="3.4" fill="#B54708" fill-opacity="0.6"/><circle cx="784.5" cy="178.3" r="3.4" fill="#B54708" fill-opacity="0.6"/><circle cx="677.9" cy="125.3" r="3.4" fill="#B54708" fill-opacity="0.6"/><circle cx="708.0" cy="132.3" r="3.4" fill="#B54708" fill-opacity="0.6"/><circle cx="649.1" cy="127.6" r="3.4" fill="#B54708" fill-opacity="0.6"/><circle cx="769.4" cy="181.0" r="3.4" fill="#B54708" fill-opacity="0.6"/><circle cx="769.0" cy="155.5" r="3.4" fill="#B54708" fill-opacity="0.6"/><circle cx="625.8" cy="140.6" r="3.4" fill="#B54708" fill-opacity="0.6"/><circle cx="808.5" cy="135.7" r="3.4" fill="#B54708" fill-opacity="0.6"/><circle cx="748.1" cy="178.1" r="3.4" fill="#B54708" fill-opacity="0.6"/><circle cx="776.6" cy="69.6" r="3.4" fill="#B54708" fill-opacity="0.6"/><circle cx="683.0" cy="121.9" r="3.4" fill="#B54708" fill-opacity="0.6"/><circle cx="642.1" cy="136.5" r="3.4" fill="#B54708" fill-opacity="0.6"/><circle cx="672.2" cy="107.4" r="3.4" fill="#B54708" fill-opacity="0.6"/><circle cx="795.2" cy="79.1" r="3.4" fill="#B54708" fill-opacity="0.6"/><circle cx="713.0" cy="139.9" r="3.4" fill="#B54708" fill-opacity="0.6"/><circle cx="735.2" cy="157.9" r="3.4" fill="#B54708" fill-opacity="0.6"/><circle cx="766.9" cy="199.4" r="3.4" fill="#B54708" fill-opacity="0.6"/><circle cx="772.8" cy="113.6" r="3.4" fill="#B54708" fill-opacity="0.6"/><circle cx="683.4" cy="129.7" r="3.4" fill="#B54708" fill-opacity="0.6"/><circle cx="795.9" cy="156.1" r="3.4" fill="#B54708" fill-opacity="0.6"/><circle cx="627.9" cy="127.9" r="3.4" fill="#B54708" fill-opacity="0.6"/><circle cx="639.0" cy="136.5" r="3.4" fill="#B54708" fill-opacity="0.6"/><circle cx="784.2" cy="67.2" r="3.4" fill="#B54708" fill-opacity="0.6"/><circle cx="780.4" cy="148.7" r="3.4" fill="#B54708" fill-opacity="0.6"/><circle cx="731.9" cy="97.3" r="3.4" fill="#B54708" fill-opacity="0.6"/><circle cx="732.3" cy="84.5" r="3.4" fill="#B54708" fill-opacity="0.6"/><circle cx="670.8" cy="110.9" r="3.4" fill="#B54708" fill-opacity="0.6"/><circle cx="850.0" cy="124.2" r="3.4" fill="#B54708" fill-opacity="0.6"/><circle cx="730.6" cy="137.3" r="3.4" fill="#B54708" fill-opacity="0.6"/><circle cx="813.6" cy="78.1" r="3.4" fill="#B54708" fill-opacity="0.6"/><circle cx="686.8" cy="139.5" r="3.4" fill="#B54708" fill-opacity="0.6"/><circle cx="673.3" cy="123.7" r="3.4" fill="#B54708" fill-opacity="0.6"/><circle cx="758.7" cy="144.0" r="3.4" fill="#B54708" fill-opacity="0.6"/><circle cx="657.6" cy="167.8" r="3.4" fill="#B54708" fill-opacity="0.6"/><circle cx="655.5" cy="139.8" r="3.4" fill="#B54708" fill-opacity="0.6"/><circle cx="813.6" cy="217.9" r="3.4" fill="#B54708" fill-opacity="0.6"/><circle cx="786.8" cy="140.3" r="3.4" fill="#B54708" fill-opacity="0.6"/><circle cx="678.2" cy="117.8" r="3.4" fill="#B54708" fill-opacity="0.6"/><circle cx="630.7" cy="139.5" r="3.4" fill="#B54708" fill-opacity="0.6"/><circle cx="625.8" cy="140.8" r="3.4" fill="#B54708" fill-opacity="0.6"/><circle cx="694.4" cy="133.7" r="3.4" fill="#B54708" fill-opacity="0.6"/><circle cx="657.4" cy="141.5" r="3.4" fill="#B54708" fill-opacity="0.6"/><circle cx="818.3" cy="95.6" r="3.4" fill="#B54708" fill-opacity="0.6"/><circle cx="625.4" cy="135.0" r="3.4" fill="#B54708" fill-opacity="0.6"/><circle cx="652.6" cy="158.2" r="3.4" fill="#B54708" fill-opacity="0.6"/><circle cx="838.1" cy="164.5" r="3.4" fill="#B54708" fill-opacity="0.6"/><circle cx="691.7" cy="181.3" r="3.4" fill="#B54708" fill-opacity="0.6"/><circle cx="710.6" cy="212.2" r="3.4" fill="#B54708" fill-opacity="0.6"/><circle cx="760.5" cy="52.1" r="3.4" fill="#B54708" fill-opacity="0.6"/><circle cx="708.0" cy="153.9" r="3.4" fill="#B54708" fill-opacity="0.6"/><circle cx="636.1" cy="132.2" r="3.4" fill="#B54708" fill-opacity="0.6"/><circle cx="648.4" cy="130.4" r="3.4" fill="#B54708" fill-opacity="0.6"/><circle cx="840.2" cy="177.4" r="3.4" fill="#B54708" fill-opacity="0.6"/><circle cx="682.3" cy="137.3" r="3.4" fill="#B54708" fill-opacity="0.6"/><circle cx="668.7" cy="115.7" r="3.4" fill="#B54708" fill-opacity="0.6"/><circle cx="710.9" cy="81.0" r="3.4" fill="#B54708" fill-opacity="0.6"/><circle cx="811.8" cy="164.8" r="3.4" fill="#B54708" fill-opacity="0.6"/><circle cx="770.1" cy="52.1" r="3.4" fill="#B54708" fill-opacity="0.6"/><circle cx="751.3" cy="180.9" r="3.4" fill="#B54708" fill-opacity="0.6"/><circle cx="790.5" cy="61.9" r="3.4" fill="#B54708" fill-opacity="0.6"/><circle cx="728.7" cy="119.3" r="3.4" fill="#B54708" fill-opacity="0.6"/><circle cx="798.1" cy="159.9" r="3.4" fill="#B54708" fill-opacity="0.6"/><circle cx="636.3" cy="140.2" r="3.4" fill="#B54708" fill-opacity="0.6"/><circle cx="838.2" cy="88.2" r="3.4" fill="#B54708" fill-opacity="0.6"/><circle cx="704.0" cy="114.5" r="3.4" fill="#B54708" fill-opacity="0.6"/><circle cx="693.5" cy="139.3" r="3.4" fill="#B54708" fill-opacity="0.6"/><circle cx="684.8" cy="190.6" r="3.4" fill="#B54708" fill-opacity="0.6"/><circle cx="775.9" cy="152.5" r="3.4" fill="#B54708" fill-opacity="0.6"/><circle cx="715.7" cy="100.8" r="3.4" fill="#B54708" fill-opacity="0.6"/><circle cx="663.5" cy="129.6" r="3.4" fill="#B54708" fill-opacity="0.6"/><circle cx="833.4" cy="101.2" r="3.4" fill="#B54708" fill-opacity="0.6"/><circle cx="739.3" cy="121.0" r="3.4" fill="#B54708" fill-opacity="0.6"/><circle cx="854.2" cy="52.1" r="3.4" fill="#B54708" fill-opacity="0.6"/><circle cx="728.5" cy="121.8" r="3.4" fill="#B54708" fill-opacity="0.6"/><circle cx="645.9" cy="129.8" r="3.4" fill="#B54708" fill-opacity="0.6"/><circle cx="703.6" cy="119.4" r="3.4" fill="#B54708" fill-opacity="0.6"/><circle cx="684.4" cy="126.9" r="3.4" fill="#B54708" fill-opacity="0.6"/><circle cx="756.0" cy="86.3" r="3.4" fill="#B54708" fill-opacity="0.6"/><circle cx="719.9" cy="166.7" r="3.4" fill="#B54708" fill-opacity="0.6"/><circle cx="720.2" cy="163.2" r="3.4" fill="#B54708" fill-opacity="0.6"/><circle cx="702.8" cy="138.7" r="3.4" fill="#B54708" fill-opacity="0.6"/><circle cx="639.3" cy="138.9" r="3.4" fill="#B54708" fill-opacity="0.6"/><circle cx="654.0" cy="102.8" r="3.4" fill="#B54708" fill-opacity="0.6"/><circle cx="740.8" cy="182.4" r="3.4" fill="#B54708" fill-opacity="0.6"/><circle cx="674.7" cy="160.8" r="3.4" fill="#B54708" fill-opacity="0.6"/><circle cx="687.3" cy="134.8" r="3.4" fill="#B54708" fill-opacity="0.6"/><circle cx="727.5" cy="103.4" r="3.4" fill="#B54708" fill-opacity="0.6"/><circle cx="844.4" cy="62.9" r="3.4" fill="#B54708" fill-opacity="0.6"/><circle cx="630.0" cy="145.5" r="3.4" fill="#B54708" fill-opacity="0.6"/><circle cx="632.4" cy="138.7" r="3.4" fill="#B54708" fill-opacity="0.6"/><circle cx="733.9" cy="202.6" r="3.4" fill="#B54708" fill-opacity="0.6"/><circle cx="760.1" cy="95.6" r="3.4" fill="#B54708" fill-opacity="0.6"/><circle cx="838.2" cy="134.9" r="3.4" fill="#B54708" fill-opacity="0.6"/><circle cx="814.9" cy="52.1" r="3.4" fill="#B54708" fill-opacity="0.6"/><circle cx="682.1" cy="176.5" r="3.4" fill="#B54708" fill-opacity="0.6"/><circle cx="650.1" cy="127.1" r="3.4" fill="#B54708" fill-opacity="0.6"/><circle cx="781.9" cy="89.8" r="3.4" fill="#B54708" fill-opacity="0.6"/><circle cx="841.5" cy="150.4" r="3.4" fill="#B54708" fill-opacity="0.6"/><circle cx="800.9" cy="206.0" r="3.4" fill="#B54708" fill-opacity="0.6"/>
<text x="740" y="30" font-size="15" fill="#B54708" font-weight="700" text-anchor="middle">이분산 (깔때기)</text>
<text x="609" y="56" font-size="12" fill="#344054" font-weight="600" text-anchor="start">잔차</text>
</svg>
