<svg viewBox="0 0 900 380" font-family="Pretendard, sans-serif" xmlns="http://www.w3.org/2000/svg">
<path d="M110,261.8 L750,261.8" stroke="#E4E7EC" stroke-width="1"/>
<path d="M110,165.4 L750,165.4" stroke="#E4E7EC" stroke-width="1"/>
<path d="M110,68.9 L750,68.9" stroke="#E4E7EC" stroke-width="1"/>
<path d="M110,40 L110,310 L750,310" stroke="#98A2B3" stroke-width="1.4" fill="none"/>
<text x="110" y="328" font-size="12.5" fill="#667085" text-anchor="middle">1</text>
<text x="270" y="328" font-size="12.5" fill="#667085" text-anchor="middle">2</text>
<text x="430" y="328" font-size="12.5" fill="#667085" text-anchor="middle">3</text>
<text x="590" y="328" font-size="12.5" fill="#667085" text-anchor="middle">4</text>
<text x="750" y="328" font-size="12.5" fill="#667085" text-anchor="middle">5</text>
<text x="102" y="266" font-size="12.5" fill="#667085" text-anchor="end">0</text>
<text x="102" y="170" font-size="12.5" fill="#667085" text-anchor="end">0.5</text>
<text x="102" y="73" font-size="12.5" fill="#667085" text-anchor="end">1</text>
<text x="430" y="349" font-size="13.5" fill="#344054" font-weight="600" text-anchor="middle">이직의도</text>
<text x="102" y="28" font-size="13.5" fill="#344054" font-weight="600" text-anchor="middle">퇴사 (확률)</text>
<rect x="110" y="261.8" width="640" height="48.2" fill="#C2452F" fill-opacity=".07"/>
<path d="M110.0,261.8 L750.0,261.8" stroke="#98A2B3" stroke-width="1.2"/>
<path d="M110.0,68.9 L750.0,68.9" stroke="#98A2B3" stroke-width="1.2"/>
<circle cx="432.0" cy="257.1" r="3.4" fill="#344054" fill-opacity="0.35"/><circle cx="513.9" cy="260.0" r="3.4" fill="#344054" fill-opacity="0.35"/><circle cx="674.7" cy="77.9" r="3.4" fill="#344054" fill-opacity="0.35"/><circle cx="477.1" cy="266.6" r="3.4" fill="#344054" fill-opacity="0.35"/><circle cx="473.8" cy="262.6" r="3.4" fill="#344054" fill-opacity="0.35"/><circle cx="556.8" cy="253.8" r="3.4" fill="#344054" fill-opacity="0.35"/><circle cx="302.5" cy="254.3" r="3.4" fill="#344054" fill-opacity="0.35"/><circle cx="189.4" cy="260.9" r="3.4" fill="#344054" fill-opacity="0.35"/><circle cx="117.1" cy="271.1" r="3.4" fill="#344054" fill-opacity="0.35"/><circle cx="232.4" cy="256.4" r="3.4" fill="#344054" fill-opacity="0.35"/><circle cx="396.4" cy="263.2" r="3.4" fill="#344054" fill-opacity="0.35"/><circle cx="343.8" cy="260.3" r="3.4" fill="#344054" fill-opacity="0.35"/><circle cx="429.5" cy="257.8" r="3.4" fill="#344054" fill-opacity="0.35"/><circle cx="385.9" cy="259.2" r="3.4" fill="#344054" fill-opacity="0.35"/><circle cx="190.7" cy="262.1" r="3.4" fill="#344054" fill-opacity="0.35"/><circle cx="471.2" cy="253.8" r="3.4" fill="#344054" fill-opacity="0.35"/><circle cx="422.2" cy="264.0" r="3.4" fill="#344054" fill-opacity="0.35"/><circle cx="305.5" cy="263.9" r="3.4" fill="#344054" fill-opacity="0.35"/><circle cx="306.5" cy="255.0" r="3.4" fill="#344054" fill-opacity="0.35"/><circle cx="196.7" cy="267.6" r="3.4" fill="#344054" fill-opacity="0.35"/><circle cx="514.3" cy="265.7" r="3.4" fill="#344054" fill-opacity="0.35"/><circle cx="424.6" cy="255.4" r="3.4" fill="#344054" fill-opacity="0.35"/><circle cx="394.8" cy="270.2" r="3.4" fill="#344054" fill-opacity="0.35"/><circle cx="664.2" cy="255.3" r="3.4" fill="#344054" fill-opacity="0.35"/><circle cx="471.9" cy="65.2" r="3.4" fill="#344054" fill-opacity="0.35"/><circle cx="144.0" cy="263.1" r="3.4" fill="#344054" fill-opacity="0.35"/><circle cx="422.0" cy="265.9" r="3.4" fill="#344054" fill-opacity="0.35"/><circle cx="675.9" cy="63.5" r="3.4" fill="#344054" fill-opacity="0.35"/><circle cx="265.4" cy="253.9" r="3.4" fill="#344054" fill-opacity="0.35"/><circle cx="305.4" cy="268.7" r="3.4" fill="#344054" fill-opacity="0.35"/><circle cx="397.7" cy="262.2" r="3.4" fill="#344054" fill-opacity="0.35"/><circle cx="316.0" cy="260.8" r="3.4" fill="#344054" fill-opacity="0.35"/><circle cx="306.6" cy="261.8" r="3.4" fill="#344054" fill-opacity="0.35"/><circle cx="437.4" cy="265.1" r="3.4" fill="#344054" fill-opacity="0.35"/><circle cx="310.6" cy="268.5" r="3.4" fill="#344054" fill-opacity="0.35"/><circle cx="432.8" cy="67.3" r="3.4" fill="#344054" fill-opacity="0.35"/><circle cx="425.3" cy="255.8" r="3.4" fill="#344054" fill-opacity="0.35"/><circle cx="557.1" cy="270.1" r="3.4" fill="#344054" fill-opacity="0.35"/><circle cx="393.1" cy="267.0" r="3.4" fill="#344054" fill-opacity="0.35"/><circle cx="397.5" cy="62.8" r="3.4" fill="#344054" fill-opacity="0.35"/><circle cx="316.3" cy="256.2" r="3.4" fill="#344054" fill-opacity="0.35"/><circle cx="586.8" cy="258.6" r="3.4" fill="#344054" fill-opacity="0.35"/><circle cx="427.8" cy="270.9" r="3.4" fill="#344054" fill-opacity="0.35"/><circle cx="224.7" cy="64.6" r="3.4" fill="#344054" fill-opacity="0.35"/><circle cx="664.3" cy="59.7" r="3.4" fill="#344054" fill-opacity="0.35"/><circle cx="383.0" cy="252.2" r="3.4" fill="#344054" fill-opacity="0.35"/><circle cx="466.8" cy="65.0" r="3.4" fill="#344054" fill-opacity="0.35"/><circle cx="511.6" cy="270.5" r="3.4" fill="#344054" fill-opacity="0.35"/><circle cx="342.1" cy="255.2" r="3.4" fill="#344054" fill-opacity="0.35"/><circle cx="432.8" cy="267.2" r="3.4" fill="#344054" fill-opacity="0.35"/><circle cx="427.4" cy="259.0" r="3.4" fill="#344054" fill-opacity="0.35"/><circle cx="467.0" cy="253.1" r="3.4" fill="#344054" fill-opacity="0.35"/><circle cx="115.1" cy="257.7" r="3.4" fill="#344054" fill-opacity="0.35"/><circle cx="349.7" cy="76.0" r="3.4" fill="#344054" fill-opacity="0.35"/><circle cx="347.1" cy="72.9" r="3.4" fill="#344054" fill-opacity="0.35"/><circle cx="469.7" cy="253.7" r="3.4" fill="#344054" fill-opacity="0.35"/><circle cx="593.3" cy="75.7" r="3.4" fill="#344054" fill-opacity="0.35"/><circle cx="502.9" cy="66.8" r="3.4" fill="#344054" fill-opacity="0.35"/><circle cx="237.6" cy="263.4" r="3.4" fill="#344054" fill-opacity="0.35"/><circle cx="462.4" cy="268.3" r="3.4" fill="#344054" fill-opacity="0.35"/><circle cx="234.0" cy="259.4" r="3.4" fill="#344054" fill-opacity="0.35"/><circle cx="395.5" cy="270.6" r="3.4" fill="#344054" fill-opacity="0.35"/><circle cx="582.3" cy="76.5" r="3.4" fill="#344054" fill-opacity="0.35"/><circle cx="474.6" cy="264.1" r="3.4" fill="#344054" fill-opacity="0.35"/><circle cx="307.9" cy="270.0" r="3.4" fill="#344054" fill-opacity="0.35"/><circle cx="351.3" cy="270.3" r="3.4" fill="#344054" fill-opacity="0.35"/><circle cx="542.1" cy="260.3" r="3.4" fill="#344054" fill-opacity="0.35"/><circle cx="342.7" cy="64.3" r="3.4" fill="#344054" fill-opacity="0.35"/><circle cx="264.9" cy="254.5" r="3.4" fill="#344054" fill-opacity="0.35"/><circle cx="477.3" cy="268.8" r="3.4" fill="#344054" fill-opacity="0.35"/><circle cx="105.1" cy="263.1" r="3.4" fill="#344054" fill-opacity="0.35"/><circle cx="514.1" cy="265.4" r="3.4" fill="#344054" fill-opacity="0.35"/><circle cx="196.9" cy="259.9" r="3.4" fill="#344054" fill-opacity="0.35"/><circle cx="397.1" cy="262.0" r="3.4" fill="#344054" fill-opacity="0.35"/><circle cx="547.5" cy="60.5" r="3.4" fill="#344054" fill-opacity="0.35"/><circle cx="667.7" cy="71.4" r="3.4" fill="#344054" fill-opacity="0.35"/><circle cx="590.4" cy="270.4" r="3.4" fill="#344054" fill-opacity="0.35"/><circle cx="514.4" cy="65.1" r="3.4" fill="#344054" fill-opacity="0.35"/><circle cx="503.7" cy="268.5" r="3.4" fill="#344054" fill-opacity="0.35"/><circle cx="314.0" cy="259.3" r="3.4" fill="#344054" fill-opacity="0.35"/><circle cx="354.8" cy="261.7" r="3.4" fill="#344054" fill-opacity="0.35"/><circle cx="435.8" cy="253.9" r="3.4" fill="#344054" fill-opacity="0.35"/><circle cx="302.6" cy="260.7" r="3.4" fill="#344054" fill-opacity="0.35"/><circle cx="437.1" cy="66.6" r="3.4" fill="#344054" fill-opacity="0.35"/><circle cx="423.5" cy="266.4" r="3.4" fill="#344054" fill-opacity="0.35"/><circle cx="307.5" cy="260.8" r="3.4" fill="#344054" fill-opacity="0.35"/><circle cx="591.8" cy="73.7" r="3.4" fill="#344054" fill-opacity="0.35"/><circle cx="516.7" cy="64.1" r="3.4" fill="#344054" fill-opacity="0.35"/><circle cx="147.4" cy="261.5" r="3.4" fill="#344054" fill-opacity="0.35"/><circle cx="316.8" cy="268.8" r="3.4" fill="#344054" fill-opacity="0.35"/><circle cx="230.7" cy="266.9" r="3.4" fill="#344054" fill-opacity="0.35"/><circle cx="547.0" cy="264.3" r="3.4" fill="#344054" fill-opacity="0.35"/><circle cx="547.1" cy="64.4" r="3.4" fill="#344054" fill-opacity="0.35"/><circle cx="224.8" cy="268.0" r="3.4" fill="#344054" fill-opacity="0.35"/><circle cx="303.3" cy="257.7" r="3.4" fill="#344054" fill-opacity="0.35"/><circle cx="344.4" cy="258.8" r="3.4" fill="#344054" fill-opacity="0.35"/><circle cx="593.0" cy="76.9" r="3.4" fill="#344054" fill-opacity="0.35"/><circle cx="437.9" cy="65.7" r="3.4" fill="#344054" fill-opacity="0.35"/><circle cx="424.6" cy="269.7" r="3.4" fill="#344054" fill-opacity="0.35"/><circle cx="422.8" cy="269.0" r="3.4" fill="#344054" fill-opacity="0.35"/><circle cx="237.8" cy="260.0" r="3.4" fill="#344054" fill-opacity="0.35"/><circle cx="230.5" cy="266.8" r="3.4" fill="#344054" fill-opacity="0.35"/><circle cx="348.5" cy="61.7" r="3.4" fill="#344054" fill-opacity="0.35"/><circle cx="305.8" cy="262.2" r="3.4" fill="#344054" fill-opacity="0.35"/><circle cx="471.5" cy="72.3" r="3.4" fill="#344054" fill-opacity="0.35"/><circle cx="275.2" cy="256.1" r="3.4" fill="#344054" fill-opacity="0.35"/><circle cx="469.3" cy="270.9" r="3.4" fill="#344054" fill-opacity="0.35"/><circle cx="348.7" cy="257.4" r="3.4" fill="#344054" fill-opacity="0.35"/><circle cx="382.9" cy="270.4" r="3.4" fill="#344054" fill-opacity="0.35"/><circle cx="516.7" cy="268.5" r="3.4" fill="#344054" fill-opacity="0.35"/><circle cx="262.5" cy="253.1" r="3.4" fill="#344054" fill-opacity="0.35"/><circle cx="389.9" cy="65.4" r="3.4" fill="#344054" fill-opacity="0.35"/><circle cx="635.4" cy="267.1" r="3.4" fill="#344054" fill-opacity="0.35"/><circle cx="224.1" cy="269.2" r="3.4" fill="#344054" fill-opacity="0.35"/><circle cx="353.7" cy="252.7" r="3.4" fill="#344054" fill-opacity="0.35"/><circle cx="597.2" cy="258.6" r="3.4" fill="#344054" fill-opacity="0.35"/><circle cx="392.1" cy="255.6" r="3.4" fill="#344054" fill-opacity="0.35"/><circle cx="314.6" cy="268.7" r="3.4" fill="#344054" fill-opacity="0.35"/><circle cx="423.7" cy="259.4" r="3.4" fill="#344054" fill-opacity="0.35"/><circle cx="469.0" cy="264.6" r="3.4" fill="#344054" fill-opacity="0.35"/><circle cx="144.4" cy="266.9" r="3.4" fill="#344054" fill-opacity="0.35"/><circle cx="435.5" cy="72.1" r="3.4" fill="#344054" fill-opacity="0.35"/><circle cx="346.7" cy="259.6" r="3.4" fill="#344054" fill-opacity="0.35"/><circle cx="309.3" cy="264.7" r="3.4" fill="#344054" fill-opacity="0.35"/><circle cx="678.0" cy="71.1" r="3.4" fill="#344054" fill-opacity="0.35"/><circle cx="395.6" cy="268.8" r="3.4" fill="#344054" fill-opacity="0.35"/><circle cx="477.6" cy="255.4" r="3.4" fill="#344054" fill-opacity="0.35"/><circle cx="549.3" cy="258.9" r="3.4" fill="#344054" fill-opacity="0.35"/><circle cx="269.8" cy="255.9" r="3.4" fill="#344054" fill-opacity="0.35"/><circle cx="513.7" cy="70.2" r="3.4" fill="#344054" fill-opacity="0.35"/><circle cx="269.7" cy="255.0" r="3.4" fill="#344054" fill-opacity="0.35"/><circle cx="346.7" cy="261.4" r="3.4" fill="#344054" fill-opacity="0.35"/><circle cx="388.5" cy="67.1" r="3.4" fill="#344054" fill-opacity="0.35"/><circle cx="104.3" cy="260.4" r="3.4" fill="#344054" fill-opacity="0.35"/><circle cx="188.0" cy="257.2" r="3.4" fill="#344054" fill-opacity="0.35"/><circle cx="477.8" cy="70.9" r="3.4" fill="#344054" fill-opacity="0.35"/><circle cx="557.4" cy="269.6" r="3.4" fill="#344054" fill-opacity="0.35"/><circle cx="552.0" cy="77.9" r="3.4" fill="#344054" fill-opacity="0.35"/><circle cx="110.0" cy="267.5" r="3.4" fill="#344054" fill-opacity="0.35"/><circle cx="387.4" cy="77.8" r="3.4" fill="#344054" fill-opacity="0.35"/><circle cx="423.4" cy="254.3" r="3.4" fill="#344054" fill-opacity="0.35"/><circle cx="306.4" cy="262.2" r="3.4" fill="#344054" fill-opacity="0.35"/><circle cx="554.5" cy="63.9" r="3.4" fill="#344054" fill-opacity="0.35"/><circle cx="555.9" cy="271.4" r="3.4" fill="#344054" fill-opacity="0.35"/><circle cx="347.8" cy="262.4" r="3.4" fill="#344054" fill-opacity="0.35"/><circle cx="394.6" cy="254.3" r="3.4" fill="#344054" fill-opacity="0.35"/><circle cx="314.4" cy="259.5" r="3.4" fill="#344054" fill-opacity="0.35"/><circle cx="433.1" cy="263.2" r="3.4" fill="#344054" fill-opacity="0.35"/><circle cx="272.6" cy="69.6" r="3.4" fill="#344054" fill-opacity="0.35"/><circle cx="314.2" cy="269.5" r="3.4" fill="#344054" fill-opacity="0.35"/><circle cx="347.8" cy="268.4" r="3.4" fill="#344054" fill-opacity="0.35"/><circle cx="553.3" cy="75.5" r="3.4" fill="#344054" fill-opacity="0.35"/><circle cx="506.5" cy="264.2" r="3.4" fill="#344054" fill-opacity="0.35"/><circle cx="509.8" cy="264.0" r="3.4" fill="#344054" fill-opacity="0.35"/><circle cx="194.3" cy="254.5" r="3.4" fill="#344054" fill-opacity="0.35"/><circle cx="233.1" cy="268.5" r="3.4" fill="#344054" fill-opacity="0.35"/><circle cx="306.7" cy="266.5" r="3.4" fill="#344054" fill-opacity="0.35"/><circle cx="437.1" cy="266.1" r="3.4" fill="#344054" fill-opacity="0.35"/><circle cx="192.4" cy="268.3" r="3.4" fill="#344054" fill-opacity="0.35"/><circle cx="471.3" cy="265.9" r="3.4" fill="#344054" fill-opacity="0.35"/><circle cx="342.2" cy="266.9" r="3.4" fill="#344054" fill-opacity="0.35"/><circle cx="190.8" cy="262.1" r="3.4" fill="#344054" fill-opacity="0.35"/><circle cx="386.0" cy="78.0" r="3.4" fill="#344054" fill-opacity="0.35"/><circle cx="472.7" cy="253.6" r="3.4" fill="#344054" fill-opacity="0.35"/><circle cx="509.4" cy="264.3" r="3.4" fill="#344054" fill-opacity="0.35"/><circle cx="395.1" cy="253.3" r="3.4" fill="#344054" fill-opacity="0.35"/><circle cx="272.4" cy="258.2" r="3.4" fill="#344054" fill-opacity="0.35"/><circle cx="314.8" cy="258.4" r="3.4" fill="#344054" fill-opacity="0.35"/><circle cx="507.6" cy="69.5" r="3.4" fill="#344054" fill-opacity="0.35"/><circle cx="352.3" cy="253.2" r="3.4" fill="#344054" fill-opacity="0.35"/><circle cx="513.8" cy="269.2" r="3.4" fill="#344054" fill-opacity="0.35"/><circle cx="435.3" cy="258.5" r="3.4" fill="#344054" fill-opacity="0.35"/><circle cx="387.6" cy="265.8" r="3.4" fill="#344054" fill-opacity="0.35"/><circle cx="595.5" cy="65.6" r="3.4" fill="#344054" fill-opacity="0.35"/><circle cx="515.9" cy="257.4" r="3.4" fill="#344054" fill-opacity="0.35"/><circle cx="193.0" cy="268.3" r="3.4" fill="#344054" fill-opacity="0.35"/><circle cx="517.6" cy="267.6" r="3.4" fill="#344054" fill-opacity="0.35"/><circle cx="357.3" cy="270.9" r="3.4" fill="#344054" fill-opacity="0.35"/><circle cx="390.3" cy="267.0" r="3.4" fill="#344054" fill-opacity="0.35"/><circle cx="350.5" cy="269.9" r="3.4" fill="#344054" fill-opacity="0.35"/><circle cx="264.7" cy="263.7" r="3.4" fill="#344054" fill-opacity="0.35"/><circle cx="275.4" cy="252.7" r="3.4" fill="#344054" fill-opacity="0.35"/><circle cx="317.0" cy="264.4" r="3.4" fill="#344054" fill-opacity="0.35"/><circle cx="429.6" cy="72.6" r="3.4" fill="#344054" fill-opacity="0.35"/><circle cx="313.1" cy="262.4" r="3.4" fill="#344054" fill-opacity="0.35"/><circle cx="193.5" cy="266.0" r="3.4" fill="#344054" fill-opacity="0.35"/><circle cx="473.7" cy="64.4" r="3.4" fill="#344054" fill-opacity="0.35"/><circle cx="464.7" cy="257.6" r="3.4" fill="#344054" fill-opacity="0.35"/><circle cx="394.5" cy="268.3" r="3.4" fill="#344054" fill-opacity="0.35"/><circle cx="351.3" cy="266.8" r="3.4" fill="#344054" fill-opacity="0.35"/><circle cx="312.6" cy="258.5" r="3.4" fill="#344054" fill-opacity="0.35"/><circle cx="468.7" cy="253.3" r="3.4" fill="#344054" fill-opacity="0.35"/><circle cx="352.0" cy="259.0" r="3.4" fill="#344054" fill-opacity="0.35"/><circle cx="354.4" cy="263.1" r="3.4" fill="#344054" fill-opacity="0.35"/><circle cx="272.2" cy="252.6" r="3.4" fill="#344054" fill-opacity="0.35"/><circle cx="433.5" cy="271.3" r="3.4" fill="#344054" fill-opacity="0.35"/><circle cx="302.4" cy="270.3" r="3.4" fill="#344054" fill-opacity="0.35"/><circle cx="624.6" cy="63.5" r="3.4" fill="#344054" fill-opacity="0.35"/><circle cx="469.1" cy="263.5" r="3.4" fill="#344054" fill-opacity="0.35"/><circle cx="312.4" cy="270.6" r="3.4" fill="#344054" fill-opacity="0.35"/><circle cx="265.5" cy="260.9" r="3.4" fill="#344054" fill-opacity="0.35"/><circle cx="433.0" cy="252.3" r="3.4" fill="#344054" fill-opacity="0.35"/><circle cx="192.1" cy="261.4" r="3.4" fill="#344054" fill-opacity="0.35"/><circle cx="742.7" cy="264.7" r="3.4" fill="#344054" fill-opacity="0.35"/><circle cx="429.5" cy="269.6" r="3.4" fill="#344054" fill-opacity="0.35"/><circle cx="385.6" cy="270.1" r="3.4" fill="#344054" fill-opacity="0.35"/><circle cx="342.9" cy="254.1" r="3.4" fill="#344054" fill-opacity="0.35"/><circle cx="384.1" cy="69.1" r="3.4" fill="#344054" fill-opacity="0.35"/><circle cx="267.1" cy="253.4" r="3.4" fill="#344054" fill-opacity="0.35"/><circle cx="304.9" cy="270.4" r="3.4" fill="#344054" fill-opacity="0.35"/><circle cx="385.1" cy="73.9" r="3.4" fill="#344054" fill-opacity="0.35"/><circle cx="302.6" cy="270.5" r="3.4" fill="#344054" fill-opacity="0.35"/><circle cx="429.4" cy="263.8" r="3.4" fill="#344054" fill-opacity="0.35"/><circle cx="388.1" cy="270.3" r="3.4" fill="#344054" fill-opacity="0.35"/><circle cx="271.8" cy="266.5" r="3.4" fill="#344054" fill-opacity="0.35"/><circle cx="271.4" cy="263.6" r="3.4" fill="#344054" fill-opacity="0.35"/><circle cx="505.8" cy="265.5" r="3.4" fill="#344054" fill-opacity="0.35"/><circle cx="276.5" cy="270.4" r="3.4" fill="#344054" fill-opacity="0.35"/><circle cx="262.0" cy="270.7" r="3.4" fill="#344054" fill-opacity="0.35"/><circle cx="468.5" cy="252.7" r="3.4" fill="#344054" fill-opacity="0.35"/><circle cx="546.5" cy="268.0" r="3.4" fill="#344054" fill-opacity="0.35"/><circle cx="588.6" cy="261.6" r="3.4" fill="#344054" fill-opacity="0.35"/><circle cx="383.8" cy="263.7" r="3.4" fill="#344054" fill-opacity="0.35"/><circle cx="395.3" cy="68.3" r="3.4" fill="#344054" fill-opacity="0.35"/><circle cx="388.0" cy="269.8" r="3.4" fill="#344054" fill-opacity="0.35"/><circle cx="182.6" cy="265.4" r="3.4" fill="#344054" fill-opacity="0.35"/><circle cx="111.8" cy="269.3" r="3.4" fill="#344054" fill-opacity="0.35"/><circle cx="343.5" cy="261.0" r="3.4" fill="#344054" fill-opacity="0.35"/><circle cx="510.7" cy="253.7" r="3.4" fill="#344054" fill-opacity="0.35"/><circle cx="427.4" cy="259.9" r="3.4" fill="#344054" fill-opacity="0.35"/><circle cx="471.3" cy="254.9" r="3.4" fill="#344054" fill-opacity="0.35"/><circle cx="357.3" cy="267.3" r="3.4" fill="#344054" fill-opacity="0.35"/><circle cx="235.1" cy="271.1" r="3.4" fill="#344054" fill-opacity="0.35"/><circle cx="228.7" cy="68.2" r="3.4" fill="#344054" fill-opacity="0.35"/><circle cx="515.0" cy="69.2" r="3.4" fill="#344054" fill-opacity="0.35"/><circle cx="632.3" cy="260.4" r="3.4" fill="#344054" fill-opacity="0.35"/><circle cx="347.9" cy="71.3" r="3.4" fill="#344054" fill-opacity="0.35"/><circle cx="384.3" cy="66.5" r="3.4" fill="#344054" fill-opacity="0.35"/><circle cx="631.5" cy="257.4" r="3.4" fill="#344054" fill-opacity="0.35"/><circle cx="391.0" cy="253.8" r="3.4" fill="#344054" fill-opacity="0.35"/><circle cx="157.3" cy="265.5" r="3.4" fill="#344054" fill-opacity="0.35"/><circle cx="277.5" cy="262.8" r="3.4" fill="#344054" fill-opacity="0.35"/><circle cx="231.7" cy="255.5" r="3.4" fill="#344054" fill-opacity="0.35"/><circle cx="267.6" cy="267.1" r="3.4" fill="#344054" fill-opacity="0.35"/><circle cx="556.3" cy="269.2" r="3.4" fill="#344054" fill-opacity="0.35"/><circle cx="462.0" cy="72.6" r="3.4" fill="#344054" fill-opacity="0.35"/><circle cx="223.7" cy="269.7" r="3.4" fill="#344054" fill-opacity="0.35"/><circle cx="391.1" cy="63.7" r="3.4" fill="#344054" fill-opacity="0.35"/><circle cx="111.8" cy="255.6" r="3.4" fill="#344054" fill-opacity="0.35"/><circle cx="464.3" cy="265.4" r="3.4" fill="#344054" fill-opacity="0.35"/><circle cx="392.1" cy="268.9" r="3.4" fill="#344054" fill-opacity="0.35"/><circle cx="276.3" cy="269.8" r="3.4" fill="#344054" fill-opacity="0.35"/><circle cx="308.0" cy="266.7" r="3.4" fill="#344054" fill-opacity="0.35"/><circle cx="588.9" cy="76.9" r="3.4" fill="#344054" fill-opacity="0.35"/><circle cx="185.6" cy="263.2" r="3.4" fill="#344054" fill-opacity="0.35"/><circle cx="346.7" cy="67.4" r="3.4" fill="#344054" fill-opacity="0.35"/><circle cx="277.6" cy="266.7" r="3.4" fill="#344054" fill-opacity="0.35"/><circle cx="228.1" cy="270.2" r="3.4" fill="#344054" fill-opacity="0.35"/><circle cx="357.4" cy="257.9" r="3.4" fill="#344054" fill-opacity="0.35"/><circle cx="356.6" cy="270.5" r="3.4" fill="#344054" fill-opacity="0.35"/><circle cx="271.5" cy="267.6" r="3.4" fill="#344054" fill-opacity="0.35"/><circle cx="346.2" cy="265.9" r="3.4" fill="#344054" fill-opacity="0.35"/><circle cx="517.7" cy="264.2" r="3.4" fill="#344054" fill-opacity="0.35"/><circle cx="269.9" cy="269.5" r="3.4" fill="#344054" fill-opacity="0.35"/><circle cx="188.6" cy="263.3" r="3.4" fill="#344054" fill-opacity="0.35"/><circle cx="307.1" cy="265.4" r="3.4" fill="#344054" fill-opacity="0.35"/><circle cx="317.7" cy="256.9" r="3.4" fill="#344054" fill-opacity="0.35"/><circle cx="509.9" cy="260.7" r="3.4" fill="#344054" fill-opacity="0.35"/><circle cx="546.6" cy="61.3" r="3.4" fill="#344054" fill-opacity="0.35"/><circle cx="309.6" cy="258.8" r="3.4" fill="#344054" fill-opacity="0.35"/><circle cx="104.0" cy="256.8" r="3.4" fill="#344054" fill-opacity="0.35"/><circle cx="431.9" cy="260.3" r="3.4" fill="#344054" fill-opacity="0.35"/><circle cx="469.1" cy="262.9" r="3.4" fill="#344054" fill-opacity="0.35"/><circle cx="186.7" cy="255.7" r="3.4" fill="#344054" fill-opacity="0.35"/><circle cx="554.5" cy="65.9" r="3.4" fill="#344054" fill-opacity="0.35"/><circle cx="315.2" cy="253.0" r="3.4" fill="#344054" fill-opacity="0.35"/><circle cx="342.2" cy="257.4" r="3.4" fill="#344054" fill-opacity="0.35"/><circle cx="550.5" cy="257.9" r="3.4" fill="#344054" fill-opacity="0.35"/><circle cx="506.4" cy="73.4" r="3.4" fill="#344054" fill-opacity="0.35"/><circle cx="357.0" cy="255.8" r="3.4" fill="#344054" fill-opacity="0.35"/><circle cx="394.5" cy="264.1" r="3.4" fill="#344054" fill-opacity="0.35"/><circle cx="225.9" cy="268.9" r="3.4" fill="#344054" fill-opacity="0.35"/><circle cx="706.3" cy="77.3" r="3.4" fill="#344054" fill-opacity="0.35"/><circle cx="304.5" cy="75.3" r="3.4" fill="#344054" fill-opacity="0.35"/><circle cx="357.8" cy="266.4" r="3.4" fill="#344054" fill-opacity="0.35"/><circle cx="586.7" cy="258.4" r="3.4" fill="#344054" fill-opacity="0.35"/><circle cx="391.7" cy="265.9" r="3.4" fill="#344054" fill-opacity="0.35"/><circle cx="309.6" cy="270.2" r="3.4" fill="#344054" fill-opacity="0.35"/><circle cx="752.3" cy="63.8" r="3.4" fill="#344054" fill-opacity="0.35"/><circle cx="511.7" cy="260.7" r="3.4" fill="#344054" fill-opacity="0.35"/><circle cx="153.9" cy="270.9" r="3.4" fill="#344054" fill-opacity="0.35"/><circle cx="303.9" cy="77.6" r="3.4" fill="#344054" fill-opacity="0.35"/><circle cx="274.2" cy="268.9" r="3.4" fill="#344054" fill-opacity="0.35"/><circle cx="466.8" cy="71.7" r="3.4" fill="#344054" fill-opacity="0.35"/><circle cx="270.5" cy="254.8" r="3.4" fill="#344054" fill-opacity="0.35"/><circle cx="387.4" cy="253.1" r="3.4" fill="#344054" fill-opacity="0.35"/><circle cx="626.7" cy="66.8" r="3.4" fill="#344054" fill-opacity="0.35"/><circle cx="470.5" cy="74.1" r="3.4" fill="#344054" fill-opacity="0.35"/><circle cx="349.4" cy="263.2" r="3.4" fill="#344054" fill-opacity="0.35"/><circle cx="227.8" cy="264.4" r="3.4" fill="#344054" fill-opacity="0.35"/>
<path d="M110.0,283.0 L750.0,139.7" stroke="#C2452F" stroke-width="2.6" stroke-dasharray="8 5"/>
<path d="M110.0,257.5 L116.4,257.3 L122.8,257.0 L129.2,256.8 L135.6,256.5 L142.0,256.3 L148.4,256.0 L154.8,255.7 L161.2,255.4 L167.6,255.1 L174.0,254.8 L180.4,254.4 L186.8,254.0 L193.2,253.6 L199.6,253.2 L206.0,252.8 L212.4,252.4 L218.8,251.9 L225.2,251.4 L231.6,250.9 L238.0,250.4 L244.4,249.8 L250.8,249.3 L257.2,248.6 L263.6,248.0 L270.0,247.3 L276.4,246.7 L282.8,245.9 L289.2,245.2 L295.6,244.4 L302.0,243.6 L308.4,242.7 L314.8,241.8 L321.2,240.9 L327.6,240.0 L334.0,239.0 L340.4,237.9 L346.8,236.8 L353.2,235.7 L359.6,234.5 L366.0,233.3 L372.4,232.1 L378.8,230.8 L385.2,229.5 L391.6,228.1 L398.0,226.6 L404.4,225.2 L410.8,223.6 L417.2,222.1 L423.6,220.4 L430.0,218.8 L436.4,217.0 L442.8,215.3 L449.2,213.5 L455.6,211.6 L462.0,209.7 L468.4,207.8 L474.8,205.8 L481.2,203.7 L487.6,201.7 L494.0,199.5 L500.4,197.4 L506.8,195.2 L513.2,193.0 L519.6,190.7 L526.0,188.4 L532.4,186.1 L538.8,183.8 L545.2,181.4 L551.6,179.0 L558.0,176.6 L564.4,174.2 L570.8,171.8 L577.2,169.3 L583.6,166.9 L590.0,164.4 L596.4,162.0 L602.8,159.6 L609.2,157.1 L615.6,154.7 L622.0,152.3 L628.4,149.9 L634.8,147.6 L641.2,145.2 L647.6,142.9 L654.0,140.6 L660.4,138.3 L666.8,136.1 L673.2,133.9 L679.6,131.7 L686.0,129.6 L692.4,127.5 L698.8,125.5 L705.2,123.5 L711.6,121.5 L718.0,119.6 L724.4,117.7 L730.8,115.9 L737.2,114.1 L743.6,112.4 L750.0,110.7" fill="none" stroke="#312E81" stroke-width="3.2"/>
<text x="198" y="296" font-size="13.5" fill="#C2452F" font-weight="700" text-anchor="start" paint-order="stroke" stroke="#fff" stroke-width="5" stroke-linejoin="round">직선은 확률 0 아래로 내려간다</text>
<text x="770" y="120" font-size="14" fill="#312E81" font-weight="800">실선</text>
<text x="770" y="140" font-size="13.5" fill="#312E81" font-weight="700">로지스틱 곡선</text>
<text x="770" y="160" font-size="13" fill="#344054" font-weight="600">0과 1 사이에 머문다</text>
<text x="770" y="210" font-size="14" fill="#C2452F" font-weight="800">점선</text>
<text x="770" y="230" font-size="13.5" fill="#C2452F" font-weight="700">직선 회귀</text>
</svg>
